<mxfile host="Electron" modified="2023-11-22T05:40:37.469Z" agent="Mozilla/5.0 (Macintosh; Intel Mac OS X 10_15_7) AppleWebKit/537.36 (KHTML, like Gecko) draw.io/22.1.2 Chrome/114.0.5735.289 Electron/25.9.4 Safari/537.36" etag="aYrmfMK_QLdjWcXuwDNP" version="22.1.2" type="device">
  <diagram id="C5RBs43oDa-KdzZeNtuy" name="Page-1">
    <mxGraphModel dx="1587" dy="1005" grid="1" gridSize="10" guides="1" tooltips="1" connect="1" arrows="1" fold="1" page="1" pageScale="1" pageWidth="827" pageHeight="1169" math="0" shadow="0">
      <root>
        <mxCell id="WIyWlLk6GJQsqaUBKTNV-0" />
        <mxCell id="WIyWlLk6GJQsqaUBKTNV-1" parent="WIyWlLk6GJQsqaUBKTNV-0" />
        <mxCell id="WIyWlLk6GJQsqaUBKTNV-3" value="가위(1), 바위(2), 보(3), 종료(0)를 선택하세요." style="rounded=1;whiteSpace=wrap;html=1;fontSize=12;glass=0;strokeWidth=1;shadow=0;" parent="WIyWlLk6GJQsqaUBKTNV-1" vertex="1">
          <mxGeometry x="343" y="215" width="120" height="40" as="geometry" />
        </mxCell>
        <mxCell id="WIyWlLk6GJQsqaUBKTNV-6" value="switch" style="rhombus;whiteSpace=wrap;html=1;shadow=0;fontFamily=Helvetica;fontSize=12;align=center;strokeWidth=1;spacing=6;spacingTop=-4;" parent="WIyWlLk6GJQsqaUBKTNV-1" vertex="1">
          <mxGeometry x="353" y="305" width="100" height="80" as="geometry" />
        </mxCell>
        <mxCell id="WIyWlLk6GJQsqaUBKTNV-7" value="에러 문구 출력" style="rounded=1;whiteSpace=wrap;html=1;fontSize=12;glass=0;strokeWidth=1;shadow=0;" parent="WIyWlLk6GJQsqaUBKTNV-1" vertex="1">
          <mxGeometry x="553" y="325" width="90" height="40" as="geometry" />
        </mxCell>
        <mxCell id="DZtXXvzAuNKyv4w1cx4I-2" value="게임 시작" style="ellipse;whiteSpace=wrap;html=1;" vertex="1" parent="WIyWlLk6GJQsqaUBKTNV-1">
          <mxGeometry x="343" y="120" width="120" height="60" as="geometry" />
        </mxCell>
        <mxCell id="DZtXXvzAuNKyv4w1cx4I-3" value="" style="endArrow=classic;html=1;rounded=0;exitX=0.5;exitY=1;exitDx=0;exitDy=0;entryX=0.5;entryY=0;entryDx=0;entryDy=0;" edge="1" parent="WIyWlLk6GJQsqaUBKTNV-1" source="DZtXXvzAuNKyv4w1cx4I-2" target="WIyWlLk6GJQsqaUBKTNV-3">
          <mxGeometry width="50" height="50" relative="1" as="geometry">
            <mxPoint x="483" y="300" as="sourcePoint" />
            <mxPoint x="533" y="250" as="targetPoint" />
          </mxGeometry>
        </mxCell>
        <mxCell id="DZtXXvzAuNKyv4w1cx4I-9" value="" style="endArrow=classic;html=1;rounded=0;exitX=1;exitY=0.5;exitDx=0;exitDy=0;entryX=0;entryY=0.5;entryDx=0;entryDy=0;" edge="1" parent="WIyWlLk6GJQsqaUBKTNV-1" source="WIyWlLk6GJQsqaUBKTNV-6" target="WIyWlLk6GJQsqaUBKTNV-7">
          <mxGeometry width="50" height="50" relative="1" as="geometry">
            <mxPoint x="533" y="310" as="sourcePoint" />
            <mxPoint x="504" y="343" as="targetPoint" />
          </mxGeometry>
        </mxCell>
        <UserObject label="default" placeholders="1" name="Variable" id="DZtXXvzAuNKyv4w1cx4I-11">
          <mxCell style="text;html=1;strokeColor=none;fillColor=none;align=center;verticalAlign=middle;whiteSpace=wrap;overflow=hidden;fontSize=12;" vertex="1" parent="WIyWlLk6GJQsqaUBKTNV-1">
            <mxGeometry x="453" y="325" width="46" height="20" as="geometry" />
          </mxCell>
        </UserObject>
        <mxCell id="DZtXXvzAuNKyv4w1cx4I-12" value="패배 문구 출력" style="rounded=1;whiteSpace=wrap;html=1;" vertex="1" parent="WIyWlLk6GJQsqaUBKTNV-1">
          <mxGeometry x="343" y="540" width="120" height="40" as="geometry" />
        </mxCell>
        <mxCell id="DZtXXvzAuNKyv4w1cx4I-13" value="종료" style="ellipse;whiteSpace=wrap;html=1;" vertex="1" parent="WIyWlLk6GJQsqaUBKTNV-1">
          <mxGeometry x="343" y="710" width="120" height="80" as="geometry" />
        </mxCell>
        <mxCell id="DZtXXvzAuNKyv4w1cx4I-32" style="edgeStyle=orthogonalEdgeStyle;rounded=0;orthogonalLoop=1;jettySize=auto;html=1;exitX=1;exitY=0.5;exitDx=0;exitDy=0;entryX=1;entryY=0.25;entryDx=0;entryDy=0;" edge="1" parent="WIyWlLk6GJQsqaUBKTNV-1" source="DZtXXvzAuNKyv4w1cx4I-14" target="WIyWlLk6GJQsqaUBKTNV-3">
          <mxGeometry relative="1" as="geometry">
            <Array as="points">
              <mxPoint x="673" y="560" />
              <mxPoint x="673" y="225" />
            </Array>
          </mxGeometry>
        </mxCell>
        <mxCell id="DZtXXvzAuNKyv4w1cx4I-14" value="비긴 문구 출력" style="rounded=1;whiteSpace=wrap;html=1;" vertex="1" parent="WIyWlLk6GJQsqaUBKTNV-1">
          <mxGeometry x="499" y="540" width="120" height="40" as="geometry" />
        </mxCell>
        <mxCell id="DZtXXvzAuNKyv4w1cx4I-15" value="승리 문구 출력" style="rounded=1;whiteSpace=wrap;html=1;" vertex="1" parent="WIyWlLk6GJQsqaUBKTNV-1">
          <mxGeometry x="187" y="540" width="120" height="40" as="geometry" />
        </mxCell>
        <mxCell id="DZtXXvzAuNKyv4w1cx4I-17" value="" style="endArrow=classic;html=1;rounded=0;exitX=0.5;exitY=1;exitDx=0;exitDy=0;entryX=0.5;entryY=0;entryDx=0;entryDy=0;" edge="1" parent="WIyWlLk6GJQsqaUBKTNV-1" source="WIyWlLk6GJQsqaUBKTNV-3" target="WIyWlLk6GJQsqaUBKTNV-6">
          <mxGeometry width="50" height="50" relative="1" as="geometry">
            <mxPoint x="353" y="330" as="sourcePoint" />
            <mxPoint x="403" y="280" as="targetPoint" />
          </mxGeometry>
        </mxCell>
        <UserObject label="종료(0)" placeholders="1" name="Variable" id="DZtXXvzAuNKyv4w1cx4I-19">
          <mxCell style="text;html=1;strokeColor=none;fillColor=none;align=center;verticalAlign=middle;whiteSpace=wrap;overflow=hidden;fontSize=12;" vertex="1" parent="WIyWlLk6GJQsqaUBKTNV-1">
            <mxGeometry x="307" y="325" width="46" height="20" as="geometry" />
          </mxCell>
        </UserObject>
        <mxCell id="DZtXXvzAuNKyv4w1cx4I-20" value="" style="endArrow=classic;html=1;rounded=0;exitX=0.5;exitY=1;exitDx=0;exitDy=0;" edge="1" parent="WIyWlLk6GJQsqaUBKTNV-1">
          <mxGeometry width="50" height="50" relative="1" as="geometry">
            <mxPoint x="402.6" y="385" as="sourcePoint" />
            <mxPoint x="403" y="420" as="targetPoint" />
          </mxGeometry>
        </mxCell>
        <mxCell id="DZtXXvzAuNKyv4w1cx4I-21" value="" style="endArrow=classic;html=1;rounded=0;entryX=0.5;entryY=0;entryDx=0;entryDy=0;" edge="1" parent="WIyWlLk6GJQsqaUBKTNV-1" target="DZtXXvzAuNKyv4w1cx4I-12">
          <mxGeometry width="50" height="50" relative="1" as="geometry">
            <mxPoint x="403" y="500" as="sourcePoint" />
            <mxPoint x="453" y="450" as="targetPoint" />
          </mxGeometry>
        </mxCell>
        <mxCell id="DZtXXvzAuNKyv4w1cx4I-23" value="" style="edgeStyle=segmentEdgeStyle;endArrow=classic;html=1;curved=0;rounded=0;endSize=8;startSize=8;exitX=1;exitY=0.5;exitDx=0;exitDy=0;entryX=0.5;entryY=0;entryDx=0;entryDy=0;" edge="1" parent="WIyWlLk6GJQsqaUBKTNV-1" source="DZtXXvzAuNKyv4w1cx4I-27" target="DZtXXvzAuNKyv4w1cx4I-14">
          <mxGeometry width="50" height="50" relative="1" as="geometry">
            <mxPoint x="463" y="480" as="sourcePoint" />
            <mxPoint x="403" y="570" as="targetPoint" />
          </mxGeometry>
        </mxCell>
        <mxCell id="DZtXXvzAuNKyv4w1cx4I-24" value="" style="edgeStyle=segmentEdgeStyle;endArrow=classic;html=1;curved=0;rounded=0;endSize=8;startSize=8;exitX=0;exitY=0.5;exitDx=0;exitDy=0;" edge="1" parent="WIyWlLk6GJQsqaUBKTNV-1" source="DZtXXvzAuNKyv4w1cx4I-27" target="DZtXXvzAuNKyv4w1cx4I-15">
          <mxGeometry width="50" height="50" relative="1" as="geometry">
            <mxPoint x="343" y="460" as="sourcePoint" />
            <mxPoint x="403" y="570" as="targetPoint" />
            <Array as="points">
              <mxPoint x="253" y="460" />
            </Array>
          </mxGeometry>
        </mxCell>
        <mxCell id="DZtXXvzAuNKyv4w1cx4I-27" value="승부 판단" style="rhombus;whiteSpace=wrap;html=1;shadow=0;fontFamily=Helvetica;fontSize=12;align=center;strokeWidth=1;spacing=6;spacingTop=-4;" vertex="1" parent="WIyWlLk6GJQsqaUBKTNV-1">
          <mxGeometry x="353" y="420" width="100" height="80" as="geometry" />
        </mxCell>
        <UserObject label="&lt;font style=&quot;font-size: 12px;&quot;&gt;가위(1), 바위(2), 보(3)&lt;/font&gt;" placeholders="1" name="Variable" id="DZtXXvzAuNKyv4w1cx4I-29">
          <mxCell style="text;html=1;strokeColor=none;fillColor=none;align=center;verticalAlign=middle;whiteSpace=wrap;overflow=hidden;fontSize=9;" vertex="1" parent="WIyWlLk6GJQsqaUBKTNV-1">
            <mxGeometry x="407" y="385" width="126" height="20" as="geometry" />
          </mxCell>
        </UserObject>
        <mxCell id="DZtXXvzAuNKyv4w1cx4I-35" value="" style="edgeStyle=segmentEdgeStyle;endArrow=classic;html=1;curved=0;rounded=0;endSize=8;startSize=8;exitX=0.5;exitY=0;exitDx=0;exitDy=0;entryX=0.895;entryY=0.993;entryDx=0;entryDy=0;entryPerimeter=0;" edge="1" parent="WIyWlLk6GJQsqaUBKTNV-1" source="WIyWlLk6GJQsqaUBKTNV-7" target="WIyWlLk6GJQsqaUBKTNV-3">
          <mxGeometry width="50" height="50" relative="1" as="geometry">
            <mxPoint x="403" y="350" as="sourcePoint" />
            <mxPoint x="453" y="300" as="targetPoint" />
            <Array as="points">
              <mxPoint x="598" y="290" />
              <mxPoint x="450" y="290" />
            </Array>
          </mxGeometry>
        </mxCell>
        <mxCell id="DZtXXvzAuNKyv4w1cx4I-36" value="" style="endArrow=classic;html=1;rounded=0;entryX=0.5;entryY=0;entryDx=0;entryDy=0;" edge="1" parent="WIyWlLk6GJQsqaUBKTNV-1" target="DZtXXvzAuNKyv4w1cx4I-13">
          <mxGeometry width="50" height="50" relative="1" as="geometry">
            <mxPoint x="403" y="580" as="sourcePoint" />
            <mxPoint x="453" y="530" as="targetPoint" />
          </mxGeometry>
        </mxCell>
        <mxCell id="DZtXXvzAuNKyv4w1cx4I-37" value="" style="edgeStyle=segmentEdgeStyle;endArrow=classic;html=1;curved=0;rounded=0;endSize=8;startSize=8;" edge="1" parent="WIyWlLk6GJQsqaUBKTNV-1">
          <mxGeometry width="50" height="50" relative="1" as="geometry">
            <mxPoint x="233" y="580" as="sourcePoint" />
            <mxPoint x="341" y="743" as="targetPoint" />
            <Array as="points">
              <mxPoint x="253" y="580" />
              <mxPoint x="253" y="743" />
            </Array>
          </mxGeometry>
        </mxCell>
        <mxCell id="DZtXXvzAuNKyv4w1cx4I-40" value="" style="edgeStyle=elbowEdgeStyle;elbow=horizontal;endArrow=classic;html=1;curved=0;rounded=0;endSize=8;startSize=8;" edge="1" parent="WIyWlLk6GJQsqaUBKTNV-1">
          <mxGeometry width="50" height="50" relative="1" as="geometry">
            <mxPoint x="353" y="345" as="sourcePoint" />
            <mxPoint x="340" y="760" as="targetPoint" />
            <Array as="points">
              <mxPoint x="153" y="560" />
            </Array>
          </mxGeometry>
        </mxCell>
      </root>
    </mxGraphModel>
  </diagram>
</mxfile>
